<mxfile><diagram id="abKbVajKZc6pmMFaM7W7" name="Page-1"><mxGraphModel dx="856" dy="776" grid="1" gridSize="10" guides="1" tooltips="1" connect="1" arrows="1" fold="1" page="1" pageScale="1" pageWidth="850" pageHeight="1100" math="1" shadow="0"><root><mxCell id="0"/><mxCell id="1" parent="0"/><mxCell id="4" value="" style="edgeStyle=none;html=1;" parent="1" source="2" target="3" edge="1"><mxGeometry relative="1" as="geometry"/></mxCell><mxCell id="6" value="Commit" style="edgeLabel;html=1;align=center;verticalAlign=middle;resizable=0;points=[];" parent="4" vertex="1" connectable="0"><mxGeometry x="0.189" relative="1" as="geometry"><mxPoint x="-8" as="offset"/></mxGeometry></mxCell><mxCell id="27" style="edgeStyle=none;html=1;exitX=0.25;exitY=1;exitDx=0;exitDy=0;entryX=0.25;entryY=0;entryDx=0;entryDy=0;" parent="1" source="2" target="26" edge="1"><mxGeometry relative="1" as="geometry"/></mxCell><mxCell id="2" value="Developer" style="rounded=1;whiteSpace=wrap;html=1;fillColor=#e3c800;strokeColor=#B09500;fontColor=#000000;" parent="1" vertex="1"><mxGeometry x="40" y="100" width="120" height="60" as="geometry"/></mxCell><mxCell id="8" value="" style="edgeStyle=none;html=1;" parent="1" source="3" target="7" edge="1"><mxGeometry relative="1" as="geometry"/></mxCell><mxCell id="11" value="Actions" style="edgeLabel;html=1;align=center;verticalAlign=middle;resizable=0;points=[];" parent="8" vertex="1" connectable="0"><mxGeometry x="-0.2" relative="1" as="geometry"><mxPoint x="8" as="offset"/></mxGeometry></mxCell><mxCell id="3" value="Github" style="whiteSpace=wrap;html=1;fillColor=#e3c800;strokeColor=#B09500;fontColor=#000000;rounded=1;" parent="1" vertex="1"><mxGeometry x="240" y="100" width="120" height="60" as="geometry"/></mxCell><mxCell id="12" value="" style="edgeStyle=none;html=1;entryX=0;entryY=0.5;entryDx=0;entryDy=0;" parent="1" source="7" target="10" edge="1"><mxGeometry relative="1" as="geometry"><mxPoint x="640" y="130" as="targetPoint"/><Array as="points"><mxPoint x="610" y="130"/><mxPoint x="610" y="180"/><mxPoint x="200" y="180"/><mxPoint x="200" y="290"/></Array></mxGeometry></mxCell><mxCell id="7" value="Code quality check via tool" style="rounded=1;whiteSpace=wrap;html=1;fillColor=#e3c800;strokeColor=#B09500;fontColor=#000000;" parent="1" vertex="1"><mxGeometry x="440" y="100" width="120" height="60" as="geometry"/></mxCell><mxCell id="45" value="" style="edgeStyle=none;html=1;" edge="1" parent="1" source="10" target="14"><mxGeometry relative="1" as="geometry"/></mxCell><mxCell id="10" value="Documentation Generation" style="rounded=1;whiteSpace=wrap;html=1;fillColor=#e3c800;strokeColor=#B09500;fontColor=#000000;" parent="1" vertex="1"><mxGeometry x="240" y="260" width="120" height="60" as="geometry"/></mxCell><mxCell id="14" value="Unit tests via automation" style="whiteSpace=wrap;html=1;fillColor=#e3c800;strokeColor=#B09500;fontColor=#000000;rounded=1;" parent="1" vertex="1"><mxGeometry x="440" y="260" width="120" height="60" as="geometry"/></mxCell><mxCell id="19" value="" style="edgeStyle=none;html=1;exitX=1;exitY=0.5;exitDx=0;exitDy=0;" parent="1" source="14" target="18" edge="1"><mxGeometry relative="1" as="geometry"><mxPoint x="760" y="290" as="sourcePoint"/></mxGeometry></mxCell><mxCell id="20" value="Deploy" style="edgeLabel;html=1;align=center;verticalAlign=middle;resizable=0;points=[];" parent="19" vertex="1" connectable="0"><mxGeometry x="-0.3" relative="1" as="geometry"><mxPoint x="12" as="offset"/></mxGeometry></mxCell><mxCell id="18" value="Production" style="whiteSpace=wrap;html=1;fillColor=#e3c800;strokeColor=#B09500;fontColor=#000000;rounded=1;" parent="1" vertex="1"><mxGeometry x="640" y="260" width="120" height="60" as="geometry"/></mxCell><mxCell id="21" value="" style="shape=image;verticalLabelPosition=bottom;labelBackgroundColor=default;verticalAlign=top;aspect=fixed;imageAspect=0;image=https://www.vectorlogo.zone/logos/codeclimate/codeclimate-ar21.png;" parent="1" vertex="1"><mxGeometry x="460" y="50" width="80" height="40" as="geometry"/></mxCell><mxCell id="24" value="" style="shape=image;verticalLabelPosition=bottom;labelBackgroundColor=default;verticalAlign=top;aspect=fixed;imageAspect=0;image=https://github.githubassets.com/images/modules/logos_page/GitHub-Mark.png;perimeterSpacing=1;clipPath=inset(0% 0.33% 0.33% 0% round 17%);" parent="1" vertex="1"><mxGeometry x="275" y="40" width="50" height="50" as="geometry"/></mxCell><mxCell id="28" style="edgeStyle=none;html=1;exitX=0.75;exitY=0;exitDx=0;exitDy=0;entryX=0.75;entryY=1;entryDx=0;entryDy=0;" parent="1" source="26" target="2" edge="1"><mxGeometry relative="1" as="geometry"/></mxCell><mxCell id="26" value="Linter" style="rounded=1;whiteSpace=wrap;html=1;fillColor=#e3c800;strokeColor=#B09500;fontColor=#000000;" parent="1" vertex="1"><mxGeometry x="40" y="220" width="120" height="60" as="geometry"/></mxCell><mxCell id="31" value="" style="shape=image;verticalLabelPosition=bottom;labelBackgroundColor=default;verticalAlign=top;aspect=fixed;imageAspect=0;image=https://i.imgur.com/Rq9TURL.png;" parent="1" vertex="1"><mxGeometry x="75" y="290" width="50" height="50" as="geometry"/></mxCell><mxCell id="32" value="" style="shape=image;verticalLabelPosition=bottom;labelBackgroundColor=default;verticalAlign=top;aspect=fixed;imageAspect=0;image=https://static.vecteezy.com/system/resources/thumbnails/002/206/015/small/developer-working-icon-free-vector.jpg;clipPath=inset(0% 0.5% 1% 0.5% round 16%);" parent="1" vertex="1"><mxGeometry x="75" y="40" width="50" height="50" as="geometry"/></mxCell><mxCell id="36" value="&lt;div style=&quot;&quot;&gt;&lt;b style=&quot;font-family: &amp;quot;Lucida Console&amp;quot;; background-color: initial;&quot;&gt;JSDoc&lt;/b&gt;&lt;/div&gt;" style="whiteSpace=wrap;html=1;rounded=1;shadow=0;sketch=0;fontColor=#080808;fillColor=#FFFFFF;align=center;" parent="1" vertex="1"><mxGeometry x="275" y="200" width="50" height="50" as="geometry"/></mxCell><mxCell id="44" value="" style="shape=image;verticalLabelPosition=bottom;labelBackgroundColor=default;verticalAlign=top;aspect=fixed;imageAspect=0;image=data:image/png,iVBORw0KGgoAAAANSUhEUgAAANYAAADsCAMAAAA/3KjXAAAAkFBMVEX////CEyW+AADvys3CECPBABvAABjBCyDBABrAABW/AA3AABPBBh6/AAXAABD67e799/j++vvqvL/rwcT56+zjpqrlrbHcjJH13uDy1df45ujgnaHRY2vVcnnns7fMS1XSaG/x0tTJPknioaXGKjjXfILek5jahYvOVV7bi5DUbnXHLzzEGyzNUFnJO0bLRlCHF5NSAAAMZklEQVR4nO1dW3eyOhCNYwC5itpaq9hq662Vtv//3x3UYwtCkgmXgW8t91MfKivD7Ay57Jlh7I477rjjjjvuuOPfwbBPjDWNWUCMHYlZ7GD0KAFzGrNefEqrrDcaq1gIlGYFCyKzWETJQioO0rLQo+JgwsKAk5kVvJOZRclCeKAza0zGQu+Hzio2IouFziOhWXQshCGlWWMid3mvlFaxEVEsdKakZrHPAYlZtBxkbELCQmIOJiw0KVhIzUEiFkJIbRYFC40DtVWM+c2z0H+hN2tpNm0Vd4jj4An9xlnYBgcZ402zsA0OMrZtmoUwasOsplloRG1YxZjbLAvb4aA2Cy1L6995QP4tvkCPhdZRbzfTFgcZ6+mw0J+yjY6/YNyWWXsbP0or1tt8cqeVOHjCWmOY/mkxruGuwaotqxiL0Szk1un/X/DvASbtmYVnoX/ZOcVYd3GnPavYM/bt8/jyA7S7Bp8tmoWOhf71uA/rrjY5yNgHjoXcu/5gijsP5l5rcfAEJAv9v7NZnLvMZYtGMWTI5vzvB48od0G/PZNOeHIRg3TSlzkDxHTk0JpBF8wQLEw7i7F3R/0Lc9uWPVcg5krGWWzkqd3VNgcZ2ylZePtlXSjdxXvt2JKCmoXOzVX9SLn9bJ+DjB0VLMx/gpTuap+DahbeOitxly13VzbEtAQFC7mbXy/sAulP7A5wUMXCvLMYC+WzC2gkaQosZO++yFmKj3gH4uAJcxkLg0LVnFQ1Ze+pLSiGhIXcLD4Vk7kLnonHL4CEhcXOYmzoCGeXtaEdvRBiFnLhMfpe6C77g3TwEvx4ms46KWNFZnWFg8miXMBC7ojPm7eCfXVH4uAJIha6T+LfPIh+QyQ4xuCtkIXcl12SCtwFM7JRK/FYuHh1pR+gYhdbR6oxI1DIKK5QVRTeqXeJg4y9FrBQ7iyBu7rEwUIWquUHq7wQpzPf4gsKWKhe2hVsabrFwSIWIjRzq5yGtFscZGx6y0LMXjDnrk7FwRNyiyGU0Ps2CYcu8QKLrywLcRv3W3fRJV5gkWUhR6rys+4iS/7BI8tC7I1H9salexy8efFo6XD2V53jYDZNCH89lRYLWN9Njq8kwpQcVOO1p7aglMk/ePzxSecuMeUuyuQfPP5YqDVHft1FmvyDx2+akKklPvgVhNEm/+BxTRPSDGjXrXU3Ofir1NJz1q+ivqMcTGLh5YJHexX+fT4Vpk+8wOK8Lxxoyxsv7qJO/sHjnDJZYst0cpf31cCAagIMuL6zzpOSQ2c5mHy6VoNS+9sY4NCS4BiJUifo/Vb1aHfccccdd9zRLh5msxpOe4bP4+nL5LnyOuFh3Z/0nysuedf746U8FF+OK8izZ0/J0sd3HB/guKiwE5x8OslYkqeAtS0vehofwf5f/cIHYO5KGjaPwP0V0VgBLEu6bBzDrzaZm/BdTlH48AMZRQ93rFLLsh3cXL3ZQZnUv+Frdjg9D1Yl3vMEcjdLHEooqCLIaXw46KsB106+WIobaxP6JT+a0/5PO1vltVBmov2cPhRpwTxPM5iJqgz4mhkQB4FuSdNfs8KXnMzUgdY8nQsek4xH66TuSSxb0plfYU+k2zO07oW+RcKrZF5o+F2SNSOXz9zgUywt9DUuyB8lyktD45ykWBB0gY2nszSnSOM0ypLJf/HqX3nSMf6EVlrDUaVY+YM8SdZYYZ9ToBVJjwdLH7Gu8AR8hqSinhY2w0gh0UerYYpFYH/DQa42RooqF1gWqlKOsUFD8ZaxXpequ3v4G0HFW0a/ZkW2HvasV1XwBytCV2XZIS8KQmkAw18nqyoLYnPOVUUlkHdwQ8VwsGohlVnYcg6qukFYsxTkwYYepVkr3HNUae9YsxQpalhvqUp3yMTQaYg04lf4yGoXimIH2CtKkU77Cuy9tCr0pC9O5rPZ87o/GY/Hk35//TybpVbmwsyAC9DphIrMU2zOgOL1XOpIXHAt3e0nuPyVipKKiOpg9wLyuc5d5GP+v/AVIR1Qc7xPE13xWUevLeWTC7+2lGdFpwso5BKGMsUUDdnk0rj9l+b84TdcI3Gq0k0Ay6/R03lC0hx/jZRW2WR3Nbbrsn1bejgFmXWZYhiS5dNApzZcJPzkcFvn9OBNuEp1V6l/K6jbnVnKiGeX1madjWJRUNVLIR2KCi96cfrfihIaMmkaO5FdmpWe5oUHWMljNDUEz8XP8cyHzD8V/Es2XW1ZbBfoSlxnVgF/SigjnoMCT5jZc8vCXfRfEZcz9gVnYVzvGOyM4XeO8KZb4rR6frx9DoevzPwU5JDfJFk/5k6ZTafk4Xlm125AVO7+ZQfpxarl+DcuF5xP8ZszpfkrpKqecBNWJa8ohlsbbMPinHumD4fSVy/hUwyBaXieYTpwfL+5EBB+BXIaovXKgWBgGIYZwGBZIdUknOwPG8uIv5Yv1QSK6/dl9PoVbR9zgxGdQ/eKTpDDyeIziqLle7/VYkhqjDaS9Xl3EnF18SpbVnOnoyJWFVbyraYXd1uUJsBBVZvF8/49fw1/1IWtLLMTBT80MHExTSa4qglVt2LicCWO7Fn437KAODFbq2uaR7hz8BV3PViKth+zCAw9cXyD4uzZFvTaZpjFa5zJz2mhqCX9XcNh2kQqbNjfHUG/QrcB8b6fftMPk6UB50859tzyjIPhOdD72dYzI/tf+91i8ZQsxdyUpEYL3AYnjva7x5f35Dmx7187VKRP5lS47Ba4XVM7Dcu03SBwbU9x/aGAZdiu4wSumTmM0mBhdNnaufVkWG4V59bVgE9/ul7d1VOBreGy8PiK3NcWJLUkTI14udmEBY/VYzjj6ixu1mAVixpuTcBd5MfoWgSmlho9skPQeoCMGb8XgHWkFkm2v7WZhYsAH9eVNV5aIsQIXVq7PHCX6+Hv+62h2rX43LtGs1AR/q/wZvVmBh8UTbhwZv2paCqnjk5JWouhLiRTFb6rVulpvknQGajL9dRtUsXv1pyoax/m4C3zhv0qq4yh0XwQvJiFGGW26kaFA8hQeElWMzhX756y+rQK9SnCI1WbT4yY6yNzyFU+wtNZhaqZme34ULqIcnikaYZ5gq++57oNySU3XOGGzipUzbKb4ZQrUD6MCVuJI9bjOYVEqZYGc5MoBp6B6C2WV0iUqFGxdoi+V2fIar1ekVcx61eYK04magyIUmxF5cp1e9aQrNnT41MHjCKxk95ydxQRW4XJVSkUQ/saK41ZTLBrTAPVvbRQCqbR93Qq0BQ1B4yuRyBDxeY2jQ60weI0NMw+VyQVxymm+nbjDXNvgUtuE7bKQiyhwk9yV2GXdkJpNvdVasSxSRwrTgBcMBNnOFk96QZ0Tj+remg1oUy47lliFo+2+dRrAqgkAFdIBeeeJeLhAlrgX7IGx35Oc2WKM7CKd2vTDUEj9DwMH70RlPaGKRZ+vHOf+gN8GcoP/khM2ZzYzz4s3LkyAX9zMH0dke5BufkzUgLa52VAdLp5gwF8ap1efqn3tNyJzzMsfNwApl9g7eAuRJplF+QZPP/Dgrf+ZOWQboCv4APwnrQL4yBbDXu+34ajLBtgWeYcDN+amBjcc334/igppkB0a6QGt8wAAA4f4/LKMq125g2DewPXAegdl4t+Ra2cVtf15uCZiT3x1+diuq6lSrqqvWPjsIwT4163j5M6BdWKTNiGTXIBNtGiX38Ze/UqoyHwQRLoniYN6U2XhLccKZts8JYvDUpo1Z1u67fJhHjbcHvVF0T35Fph+FChch0WmDbS9cFy/AOJhH1I6C0P4neqeuFU3+MkSnwR1mpWbo/rMcqx96RNVgqytWuHB71H4qQsVdmX6jDgrYVMl4aXTwM4tNICXF7hoiJMiFrq3yYsLVAdtjhbqXmsmomFSUTftpnkqCrnVs4o19+33KqjqHRFRaMC56P1NFtpQcoyRrnw1LpRCT7rnF08cDthFGNhfbcFPPB33TCKnSRLNRnluIsu5QQv60iN447VKaMSfFe+CbZ8o3u99aoqvS3YdLJJ0YNRwS4Pjh1KR8/gYVM2zA/gp8M9ikavZeJh8u1ddbzOyg50iej58NHBjqk3mH3rCH64CW9lWii0gHd0SQHPD7YdZ18KwxWYao95DhxeOvbpVWC+9QPp4aHhw+u0s30PxRjuNoJSEPx0yRY1edfRLGZPGx8C4+/GnFtG4IN1WPw786kYw/4i+rH/r34LwVu0GHc/lmMRhsOHYRj+W+HhjjvuuOOOO+64o0b8B1EqyPi+FXNlAAAAAElFTkSuQmCC;clipPath=inset(0% 0.47% 0.42% 0% round 15%);" parent="1" vertex="1"><mxGeometry x="477.33000000000004" y="200" width="45.31914893617021" height="50" as="geometry"/></mxCell></root></mxGraphModel></diagram></mxfile>